<?xml version="1.0" encoding="UTF-8"?>
<!DOCTYPE svg PUBLIC "-//W3C//DTD SVG 1.1//EN" "http://www.w3.org/Graphics/SVG/1.1/DTD/svg11.dtd">
<!-- Creator: CorelDRAW -->
<svg xmlns="http://www.w3.org/2000/svg" xml:space="preserve" width="6.82666in" height="6.82666in" style="shape-rendering:geometricPrecision; text-rendering:geometricPrecision; image-rendering:optimizeQuality; fill-rule:evenodd; clip-rule:evenodd"
viewBox="0 0 6.82666 6.82666"
 xmlns:xlink="http://www.w3.org/1999/xlink">
 <defs>
  <style type="text/css">
   <![CDATA[
    .fil2 {fill:none}
    .fil0 {fill:#212121;fill-rule:nonzero}
    .fil1 {fill:#66BB6A;fill-rule:nonzero}
   ]]>
  </style>
 </defs>
 <g id="Layer_x0020_1">
  <metadata id="CorelCorpID_0Corel-Layer"/>
  <path class="fil0" d="M1.45105 3.25214c0.00825984,0 0.0167598,0.000220472 0.0254803,0.000653543 0.0219449,-0.122559 0.0812441,-0.232169 0.165701,-0.316626 0.108169,-0.108173 0.257602,-0.175079 0.422646,-0.175079 0.054185,0 0.106791,0.00726772 0.156882,0.020878 0.0059685,0.00162205 0.0119094,0.00334252 0.0178189,0.00515748 0.034063,-0.0938937 0.091,-0.176854 0.164091,-0.242134 0.105965,-0.0946535 0.245378,-0.152193 0.397791,-0.152193 0.103961,0 0.201972,0.0267717 0.287524,0.0738189 0.0508071,0.0279449 0.0970945,0.0630197 0.1375,0.103866 0.0529724,-0.0435945 0.111685,-0.0802953 0.174783,-0.108748 0.0982165,-0.0442835 0.206866,-0.068937 0.320913,-0.068937 0.166142,0 0.320559,0.0522835 0.447744,0.141374 0.095189,0.0666772 0.174827,0.153957 0.232398,0.255327 0.0363346,-0.0190906 0.0743976,-0.0354331 0.113913,-0.048752 0.0789488,-0.0266063 0.162866,-0.0410354 0.249441,-0.0410354 0.193122,0 0.37015,0.070378 0.506909,0.186961 0.123563,0.105335 0.213894,0.248705 0.253051,0.412138 0.125118,0.0592992 0.23202,0.150933 0.309929,0.264126 0.0868976,0.126244 0.137768,0.278776 0.137768,0.442705 0,0.215898 -0.0875236,0.41137 -0.229012,0.552862 -0.141492,0.141488 -0.336965,0.229012 -0.552862,0.229012 -0.0212953,0 -0.045311,-0.00124409 -0.0718425,-0.00366929 -0.00404331,-0.000370079 -0.00807087,-0.000767717 -0.0120709,-0.00119291 -0.0648031,0.0638504 -0.141031,0.116614 -0.225504,0.155079 -0.0992717,0.0452047 -0.208909,0.0703937 -0.323661,0.0703937 -0.0948701,0 -0.186598,-0.0173622 -0.27213,-0.049126 -0.0432717,-0.0160709 -0.0847165,-0.0358465 -0.123953,-0.0589409 -0.0562047,0.102602 -0.134697,0.191185 -0.228945,0.259189 -0.128795,0.0929291 -0.286567,0.147693 -0.456701,0.147693 -0.189283,0 -0.362953,-0.0674094 -0.498327,-0.179555 -0.0870551,-0.0721181 -0.158205,-0.162862 -0.207437,-0.266157 -0.0459803,0.0413622 -0.0968307,0.0772992 -0.151579,0.106811 -0.110484,0.0595669 -0.23661,0.093374 -0.370295,0.093374 -0.206126,0 -0.393697,-0.0799606 -0.533425,-0.210583 -0.113831,-0.106409 -0.19585,-0.246484 -0.230252,-0.404398 -0.0118071,0.000767717 -0.0232441,0.00115748 -0.0342874,0.00115748 -0.165043,0 -0.314476,-0.0669094 -0.422646,-0.175079 -0.108169,-0.108169 -0.175079,-0.257602 -0.175079,-0.422646 0,-0.165039 0.0669134,-0.314476 0.175079,-0.422646 0.108169,-0.108169 0.257602,-0.175079 0.422646,-0.175079zm0.048815 0.215984c-0.013811,-0.00174409 -0.0300669,-0.00264567 -0.048815,-0.00264567 -0.106157,0 -0.20226,0.0430236 -0.271811,0.112575 -0.0695472,0.0695512 -0.112575,0.165657 -0.112575,0.271811 0,0.106157 0.0430236,0.20226 0.112575,0.271811 0.0695512,0.0695512 0.165654,0.112575 0.271811,0.112575 0.0188898,0 0.0353504,-0.000933071 0.0494409,-0.00273228 0.0134173,-0.00171654 0.0269016,-0.00421654 0.0403976,-0.00745276 0.00865748,-0.00295276 0.0178425,-0.00484252 0.0274055,-0.00547638 0.0587795,-0.00390945 0.109606,0.0405709 0.113516,0.0993504l-0.106433 0.00708268 0.106252 -0.00666535c0.00986614,0.148307 0.0767598,0.281098 0.178961,0.376638 0.101575,0.0949528 0.238146,0.153079 0.388425,0.153079 0.0977953,0 0.189547,-0.0244567 0.269461,-0.0675394 0.0808307,-0.0435709 0.149783,-0.105831 0.200945,-0.180843 0.0147913,-0.027185 0.0412283,-0.047748 0.0740118,-0.0539134 0.0578937,-0.0108858 0.113661,0.0272205 0.124547,0.0851142l-0.104831 0.0197165 0.104583 -0.0195827c0.0249449,0.132646 0.0962087,0.249169 0.196429,0.332193 0.0982992,0.0814331 0.224614,0.130382 0.362492,0.130382 0.124516,0 0.23935,-0.039622 0.332535,-0.106858 0.0936535,-0.0675748 0.165906,-0.162839 0.204669,-0.273693 0.0038189,-0.0161063 0.0114488,-0.0315591 0.0230079,-0.0449606 0.0384764,-0.0446063 0.105835,-0.0495787 0.150441,-0.0111024l-0.0696693 0.0807717 0.0695827 -0.0804173c0.0507874,0.0438031 0.109319,0.0787677 0.173197,0.102492 0.0608543,0.0225984 0.12752,0.0349528 0.197965,0.0349528 0.084622,0 0.16428,-0.0180315 0.235331,-0.0503858 0.0731024,-0.0332874 0.138213,-0.0820709 0.191295,-0.142283 0.0238425,-0.0291969 0.0624567,-0.0448307 0.102134,-0.0374764l-6.29921e-005 0.000338583c0.0174764,0.00323228 0.0347323,0.00564961 0.0517047,0.00719685 0.0144606,0.0013189 0.0319921,0.002 0.0526772,0.002 0.157012,0 0.299154,-0.0636339 0.402028,-0.166508 0.102874,-0.102874 0.166508,-0.245016 0.166508,-0.402028 0,-0.119909 -0.0367165,-0.23076 -0.0994291,-0.32187 -0.0639724,-0.0929409 -0.154976,-0.165949 -0.261732,-0.207752 -0.0365748,-0.0121732 -0.0652717,-0.0438031 -0.0717402,-0.0845039l0.105346 -0.016748 -0.105 0.0166654c-0.0217008,-0.136531 -0.0922244,-0.257028 -0.193185,-0.343091 -0.0989646,-0.0843622 -0.227646,-0.135291 -0.368579,-0.135291 -0.0642795,0 -0.125441,0.0103268 -0.181937,0.0293661 -0.0565945,0.0190748 -0.109366,0.0470079 -0.156697,0.0821772 -0.00962598,0.00838189 -0.0209213,0.0151732 -0.0336378,0.0197913 -0.0553701,0.0201102 -0.116567,-0.00847244 -0.136677,-0.0638425l0.10026 -0.0364173 -0.1 0.036252c-0.0402717,-0.110874 -0.113921,-0.20563 -0.208732,-0.272039 -0.0919449,-0.0644055 -0.204354,-0.102201 -0.326075,-0.102201 -0.0835157,0 -0.162512,0.0177992 -0.233409,0.0497638 -0.071626,0.0322953 -0.135213,0.0787205 -0.187114,0.135626 -0.0075315,0.0100669 -0.0169764,0.0189724 -0.0282205,0.0261142 -0.0497244,0.0315866 -0.115646,0.016878 -0.147232,-0.0328465l0.0900394 -0.0571929 -0.09 0.0570827c-0.0348031,-0.0547913 -0.0829409,-0.100142 -0.139764,-0.131398 -0.0546417,-0.0300512 -0.117689,-0.0471496 -0.18502,-0.0471496 -0.0987402,0 -0.188457,0.0367441 -0.256122,0.097185 -0.0673307,0.0601417 -0.11335,0.143728 -0.125311,0.237984 -0.000913386,0.0164449 -0.00565748,0.0329173 -0.0145827,0.0480906 -0.029874,0.0507717 -0.0952559,0.0677126 -0.146028,0.0378386l0.000204724 -0.000350394c-0.0282559,-0.0166063 -0.059689,-0.0298465 -0.0936969,-0.0390827 -0.0320866,-0.00871654 -0.0659646,-0.013374 -0.101047,-0.013374 -0.106157,0 -0.202264,0.0430236 -0.271811,0.112575 -0.0695512,0.0695512 -0.112575,0.16565 -0.112575,0.271807 0,0.00334252 -1.5748e-005,0.00562598 -3.54331e-005,0.00721654 0.000897638,0.0114488 -5.11811e-005,0.0232362 -0.00307874,0.0349764 -0.0147126,0.0570433 -0.0728898,0.0913543 -0.129933,0.0766417l0.000114173 -0.000440945c-0.0153976,-0.00395669 -0.0313189,-0.00701181 -0.0476929,-0.00907874z"/>
  <path class="fil1" d="M3.82993 2.29267c0.0494488,-0.130031 0.129295,-0.245161 0.230882,-0.336713 0.153744,-0.138559 0.357445,-0.222902 0.580972,-0.222902 0.239681,0 0.456665,0.0971457 0.61372,0.254201 0.157055,0.157055 0.254201,0.374039 0.254201,0.61372 0,0.104425 -0.0180984,0.203937 -0.0512835,0.295587 -0.00240945,0.00666142 -0.00490551,0.0132835 -0.00747638,0.0198661 0.0541102,0.0655787 0.098563,0.138598 0.131917,0.216815 0.0295236,-0.0521496 0.0548661,-0.107028 0.0755591,-0.164177 0.0418189,-0.115492 0.064622,-0.239476 0.064622,-0.368091 0,-0.298567 -0.121031,-0.568882 -0.316705,-0.764555 -0.195673,-0.195673 -0.465988,-0.316705 -0.764555,-0.316705 -0.278106,0 -0.531791,0.105157 -0.723476,0.277909 -0.146024,0.131598 -0.255969,0.302555 -0.313224,0.496224 0.0387008,-0.00513386 0.0778031,-0.00772441 0.117098,-0.00772441 0.0362047,0 0.0721732,0.00220472 0.107748,0.00654331z"/>
 </g>
 <rect class="fil2" width="6.82666" height="6.82666"/>
</svg>
